<svg aria-hidden="true" style="position: absolute; width: 0; height: 0; overflow: hidden;" version="1.1" xmlns="http://www.w3.org/2000/svg" xmlns:xlink="http://www.w3.org/1999/xlink">
<defs>
<symbol id="icon-activity" viewBox="0 0 24 24">
<path d="M22 11h-4c-0.439 0-0.812 0.283-0.949 0.684l-2.051 6.154-5.051-15.154c-0.175-0.524-0.741-0.807-1.265-0.633-0.31 0.103-0.535 0.343-0.633 0.633l-2.772 8.316h-3.279c-0.552 0-1 0.448-1 1s0.448 1 1 1h4c0.423-0.003 0.81-0.267 0.949-0.684l2.051-6.154 5.051 15.154c0.098 0.29 0.323 0.529 0.632 0.632 0.524 0.175 1.090-0.109 1.265-0.632l2.773-8.316h3.279c0.552 0 1-0.448 1-1s-0.448-1-1-1z"></path>
</symbol>
<symbol id="icon-airplay" viewBox="0 0 24 24">
<path d="M5 16h-1c-0.276 0-0.525-0.111-0.707-0.293s-0.293-0.431-0.293-0.707v-10c0-0.276 0.111-0.525 0.293-0.707s0.431-0.293 0.707-0.293h16c0.276 0 0.525 0.111 0.707 0.293s0.293 0.431 0.293 0.707v10c0 0.276-0.111 0.525-0.293 0.707s-0.431 0.293-0.707 0.293h-1c-0.552 0-1 0.448-1 1s0.448 1 1 1h1c0.828 0 1.58-0.337 2.121-0.879s0.879-1.293 0.879-2.121v-10c0-0.828-0.337-1.58-0.879-2.121s-1.293-0.879-2.121-0.879h-16c-0.828 0-1.58 0.337-2.121 0.879s-0.879 1.293-0.879 2.121v10c0 0.828 0.337 1.58 0.879 2.121s1.293 0.879 2.121 0.879h1c0.552 0 1-0.448 1-1s-0.448-1-1-1zM12.768 14.36c-0.035-0.043-0.079-0.087-0.128-0.128-0.424-0.354-1.055-0.296-1.408 0.128l-5 6c-0.144 0.172-0.232 0.396-0.232 0.64 0 0.552 0.448 1 1 1h10c0.225 0.001 0.453-0.075 0.64-0.232 0.424-0.354 0.482-0.984 0.128-1.408zM12 16.562l2.865 3.438h-5.73z"></path>
</symbol>
<symbol id="icon-align-justify" viewBox="0 0 24 24">
<path d="M21 9h-18c-0.552 0-1 0.448-1 1s0.448 1 1 1h18c0.552 0 1-0.448 1-1s-0.448-1-1-1zM21 5h-18c-0.552 0-1 0.448-1 1s0.448 1 1 1h18c0.552 0 1-0.448 1-1s-0.448-1-1-1zM21 13h-18c-0.552 0-1 0.448-1 1s0.448 1 1 1h18c0.552 0 1-0.448 1-1s-0.448-1-1-1zM21 17h-18c-0.552 0-1 0.448-1 1s0.448 1 1 1h18c0.552 0 1-0.448 1-1s-0.448-1-1-1z"></path>
</symbol>
<symbol id="icon-book-open" viewBox="0 0 24 24">
<path d="M21 4v13h-6c-0.728 0-1.412 0.195-2 0.535v-10.535c0-0.829 0.335-1.577 0.879-2.121s1.292-0.879 2.121-0.879zM11 17.535c-0.588-0.34-1.272-0.535-2-0.535h-6v-13h5c0.829 0 1.577 0.335 2.121 0.879s0.879 1.292 0.879 2.121zM22 2h-6c-1.38 0-2.632 0.561-3.536 1.464-0.167 0.167-0.322 0.346-0.464 0.536-0.142-0.19-0.297-0.369-0.464-0.536-0.904-0.903-2.156-1.464-3.536-1.464h-6c-0.552 0-1 0.448-1 1v15c0 0.552 0.448 1 1 1h7c0.553 0 1.051 0.223 1.414 0.586s0.586 0.861 0.586 1.414c0 0.552 0.448 1 1 1s1-0.448 1-1c0-0.553 0.223-1.051 0.586-1.414s0.861-0.586 1.414-0.586h7c0.552 0 1-0.448 1-1v-15c0-0.552-0.448-1-1-1z"></path>
</symbol>
<symbol id="icon-cast" viewBox="0 0 24 24">
<path d="M1.8 17.080c0.938 0.191 1.729 0.694 2.292 1.386 0.405 0.497 0.693 1.093 0.829 1.741 0.114 0.54 0.644 0.886 1.185 0.772s0.886-0.644 0.772-1.185c-0.202-0.96-0.63-1.847-1.235-2.591-0.845-1.038-2.038-1.796-3.443-2.083-0.541-0.11-1.069 0.239-1.18 0.78s0.239 1.069 0.78 1.18zM1.889 13.044c2.001 0.223 3.744 1.163 5.006 2.546 1.119 1.226 1.859 2.799 2.061 4.526 0.064 0.549 0.561 0.941 1.109 0.877s0.941-0.561 0.877-1.109c-0.251-2.15-1.174-4.112-2.57-5.642-1.578-1.729-3.763-2.908-6.263-3.186-0.549-0.061-1.043 0.334-1.104 0.883s0.334 1.043 0.883 1.104zM3 8v-2c0-0.276 0.111-0.525 0.293-0.707s0.431-0.293 0.707-0.293h16c0.276 0 0.525 0.111 0.707 0.293s0.293 0.431 0.293 0.707v12c0 0.276-0.111 0.525-0.293 0.707s-0.431 0.293-0.707 0.293h-6c-0.552 0-1 0.448-1 1s0.448 1 1 1h6c0.828 0 1.58-0.337 2.121-0.879s0.879-1.293 0.879-2.121v-12c0-0.828-0.337-1.58-0.879-2.121s-1.293-0.879-2.121-0.879h-16c-0.828 0-1.58 0.337-2.121 0.879s-0.879 1.293-0.879 2.121v2c0 0.552 0.448 1 1 1s1-0.448 1-1zM2 21c0.552 0 1-0.448 1-1s-0.448-1-1-1-1 0.448-1 1 0.448 1 1 1z"></path>
</symbol>
<symbol id="icon-cloud-rain" viewBox="0 0 24 24">
<path d="M15 13v8c0 0.552 0.448 1 1 1s1-0.448 1-1v-8c0-0.552-0.448-1-1-1s-1 0.448-1 1zM7 13v8c0 0.552 0.448 1 1 1s1-0.448 1-1v-8c0-0.552-0.448-1-1-1s-1 0.448-1 1zM11 15v8c0 0.552 0.448 1 1 1s1-0.448 1-1v-8c0-0.552-0.448-1-1-1s-1 0.448-1 1zM20.401 17.496c1.517-0.665 2.623-1.883 3.181-3.312s0.572-3.074-0.092-4.591c-0.574-1.311-1.563-2.316-2.752-2.925-0.836-0.428-1.771-0.66-2.73-0.668h-0.528c-0.725-2.057-2.143-3.708-3.915-4.753-1.983-1.169-4.415-1.582-6.821-0.961s-4.334 2.161-5.503 4.144-1.582 4.415-0.961 6.821c0.509 1.97 1.634 3.623 3.099 4.783 0.433 0.343 1.062 0.27 1.405-0.163s0.27-1.062-0.163-1.405c-1.132-0.897-2.008-2.179-2.405-3.716-0.483-1.871-0.163-3.76 0.748-5.305s2.408-2.739 4.28-3.223 3.761-0.163 5.305 0.748 2.739 2.408 3.223 4.28c0.115 0.435 0.505 0.75 0.968 0.75h1.252c0.647 0.005 1.275 0.162 1.834 0.448 0.793 0.406 1.448 1.073 1.832 1.947 0.443 1.012 0.435 2.106 0.062 3.061s-1.109 1.765-2.121 2.208c-0.506 0.222-0.736 0.811-0.515 1.317s0.811 0.736 1.317 0.515z"></path>
</symbol>
<symbol id="icon-cpu" viewBox="0 0 24 24">
<path d="M6 5h12c0.276 0 0.525 0.111 0.707 0.293s0.293 0.431 0.293 0.707v12c0 0.276-0.111 0.525-0.293 0.707s-0.431 0.293-0.707 0.293h-12c-0.276 0-0.525-0.111-0.707-0.293s-0.293-0.431-0.293-0.707v-12c0-0.276 0.111-0.525 0.293-0.707s0.431-0.293 0.707-0.293zM9 8c-0.552 0-1 0.448-1 1v6c0 0.552 0.448 1 1 1h6c0.552 0 1-0.448 1-1v-6c0-0.552-0.448-1-1-1zM10 10h4v4h-4zM1 15h2v3c0 0.828 0.337 1.58 0.879 2.121s1.293 0.879 2.121 0.879h2v2c0 0.552 0.448 1 1 1s1-0.448 1-1v-2h4v2c0 0.552 0.448 1 1 1s1-0.448 1-1v-2h2c0.828 0 1.58-0.337 2.121-0.879s0.879-1.293 0.879-2.121v-3h2c0.552 0 1-0.448 1-1s-0.448-1-1-1h-2v-3h2c0.552 0 1-0.448 1-1s-0.448-1-1-1h-2v-2c0-0.828-0.337-1.58-0.879-2.121s-1.293-0.879-2.121-0.879h-2v-2c0-0.552-0.448-1-1-1s-1 0.448-1 1v2h-4v-2c0-0.552-0.448-1-1-1s-1 0.448-1 1v2h-2c-0.828 0-1.58 0.337-2.121 0.879s-0.879 1.293-0.879 2.121v2h-2c-0.552 0-1 0.448-1 1s0.448 1 1 1h2v3h-2c-0.552 0-1 0.448-1 1s0.448 1 1 1z"></path>
</symbol>
<symbol id="icon-edit" viewBox="0 0 24 24">
<path d="M11 3h-7c-0.828 0-1.58 0.337-2.121 0.879s-0.879 1.293-0.879 2.121v14c0 0.828 0.337 1.58 0.879 2.121s1.293 0.879 2.121 0.879h14c0.828 0 1.58-0.337 2.121-0.879s0.879-1.293 0.879-2.121v-7c0-0.552-0.448-1-1-1s-1 0.448-1 1v7c0 0.276-0.111 0.525-0.293 0.707s-0.431 0.293-0.707 0.293h-14c-0.276 0-0.525-0.111-0.707-0.293s-0.293-0.431-0.293-0.707v-14c0-0.276 0.111-0.525 0.293-0.707s0.431-0.293 0.707-0.293h7c0.552 0 1-0.448 1-1s-0.448-1-1-1zM17.793 1.793l-9.5 9.5c-0.122 0.121-0.217 0.28-0.263 0.465l-1 4c-0.039 0.15-0.042 0.318 0 0.485 0.134 0.536 0.677 0.862 1.213 0.728l4-1c0.167-0.041 0.33-0.129 0.465-0.263l9.5-9.5c0.609-0.609 0.914-1.41 0.914-2.207s-0.305-1.598-0.914-2.207-1.411-0.915-2.208-0.915-1.598 0.305-2.207 0.914zM19.207 3.207c0.219-0.219 0.504-0.328 0.793-0.328s0.574 0.109 0.793 0.328 0.328 0.504 0.328 0.793-0.109 0.574-0.328 0.793l-9.304 9.304-2.114 0.529 0.529-2.114z"></path>
</symbol>
<symbol id="icon-external-link" viewBox="0 0 24 24">
<path d="M17 13v6c0 0.276-0.111 0.525-0.293 0.707s-0.431 0.293-0.707 0.293h-11c-0.276 0-0.525-0.111-0.707-0.293s-0.293-0.431-0.293-0.707v-11c0-0.276 0.111-0.525 0.293-0.707s0.431-0.293 0.707-0.293h6c0.552 0 1-0.448 1-1s-0.448-1-1-1h-6c-0.828 0-1.58 0.337-2.121 0.879s-0.879 1.293-0.879 2.121v11c0 0.828 0.337 1.58 0.879 2.121s1.293 0.879 2.121 0.879h11c0.828 0 1.58-0.337 2.121-0.879s0.879-1.293 0.879-2.121v-6c0-0.552-0.448-1-1-1s-1 0.448-1 1zM10.707 14.707l9.293-9.293v3.586c0 0.552 0.448 1 1 1s1-0.448 1-1v-6c0-0.136-0.027-0.265-0.076-0.383s-0.121-0.228-0.216-0.323c-0.001-0.001-0.001-0.001-0.002-0.002-0.092-0.092-0.202-0.166-0.323-0.216-0.118-0.049-0.247-0.076-0.383-0.076h-6c-0.552 0-1 0.448-1 1s0.448 1 1 1h3.586l-9.293 9.293c-0.391 0.391-0.391 1.024 0 1.414s1.024 0.391 1.414 0z"></path>
</symbol>
<symbol id="icon-image" viewBox="0 0 24 24">
<path d="M5 2c-0.828 0-1.58 0.337-2.121 0.879s-0.879 1.293-0.879 2.121v14c0 0.828 0.337 1.58 0.879 2.121s1.293 0.879 2.121 0.879h14c0.828 0 1.58-0.337 2.121-0.879s0.879-1.293 0.879-2.121v-14c0-0.828-0.337-1.58-0.879-2.121s-1.293-0.879-2.121-0.879zM11 8.5c0-0.69-0.281-1.316-0.732-1.768s-1.078-0.732-1.768-0.732-1.316 0.281-1.768 0.732-0.732 1.078-0.732 1.768 0.281 1.316 0.732 1.768 1.078 0.732 1.768 0.732 1.316-0.281 1.768-0.732 0.732-1.078 0.732-1.768zM9 8.5c0 0.138-0.055 0.262-0.146 0.354s-0.216 0.146-0.354 0.146-0.262-0.055-0.354-0.146-0.146-0.216-0.146-0.354 0.055-0.262 0.146-0.354 0.216-0.146 0.354-0.146 0.262 0.055 0.354 0.146 0.146 0.216 0.146 0.354zM7.414 20l8.586-8.586 4 4v3.586c0 0.276-0.111 0.525-0.293 0.707s-0.431 0.293-0.707 0.293zM20 12.586l-3.293-3.293c-0.391-0.391-1.024-0.391-1.414 0l-10.644 10.644c-0.135-0.050-0.255-0.129-0.356-0.23-0.182-0.182-0.293-0.431-0.293-0.707v-14c0-0.276 0.111-0.525 0.293-0.707s0.431-0.293 0.707-0.293h14c0.276 0 0.525 0.111 0.707 0.293s0.293 0.431 0.293 0.707z"></path>
</symbol>
<symbol id="icon-layers" viewBox="0 0 24 24">
<path d="M12 3.118l7.764 3.882-7.764 3.882-7.764-3.882zM11.553 1.106l-10 5c-0.494 0.247-0.694 0.847-0.447 1.341 0.101 0.203 0.261 0.356 0.447 0.447l10 5c0.292 0.146 0.62 0.136 0.894 0l10-5c0.494-0.247 0.694-0.848 0.447-1.342-0.101-0.202-0.262-0.355-0.447-0.447l-10-5c-0.292-0.146-0.62-0.136-0.894 0zM1.553 17.894l10 5c0.292 0.146 0.62 0.136 0.894 0l10-5c0.494-0.247 0.694-0.848 0.447-1.342s-0.848-0.694-1.342-0.447l-9.552 4.777-9.553-4.776c-0.494-0.247-1.095-0.047-1.342 0.447s-0.047 1.095 0.447 1.342zM1.553 12.894l10 5c0.292 0.146 0.62 0.136 0.894 0l10-5c0.494-0.247 0.694-0.848 0.447-1.342s-0.848-0.694-1.342-0.447l-9.552 4.777-9.553-4.776c-0.494-0.247-1.095-0.047-1.342 0.447s-0.047 1.095 0.447 1.342z"></path>
</symbol>
<symbol id="icon-mail" viewBox="0 0 24 24">
<path d="M3 7.921l8.427 5.899c0.34 0.235 0.795 0.246 1.147 0l8.426-5.899v10.079c0 0.272-0.11 0.521-0.295 0.705s-0.433 0.295-0.705 0.295h-16c-0.272 0-0.521-0.11-0.705-0.295s-0.295-0.433-0.295-0.705zM1 5.983c0 0.010 0 0.020 0 0.030v11.987c0 0.828 0.34 1.579 0.88 2.12s1.292 0.88 2.12 0.88h16c0.828 0 1.579-0.34 2.12-0.88s0.88-1.292 0.88-2.12v-11.988c0-0.010 0-0.020 0-0.030-0.005-0.821-0.343-1.565-0.88-2.102-0.541-0.54-1.292-0.88-2.12-0.88h-16c-0.828 0-1.579 0.34-2.12 0.88-0.537 0.537-0.875 1.281-0.88 2.103zM20.894 5.554l-8.894 6.225-8.894-6.225c0.048-0.096 0.112-0.183 0.188-0.259 0.185-0.185 0.434-0.295 0.706-0.295h16c0.272 0 0.521 0.11 0.705 0.295 0.076 0.076 0.14 0.164 0.188 0.259z"></path>
</symbol>
<symbol id="icon-maximize" viewBox="0 0 24 24">
<path d="M8 2h-3c-0.828 0-1.58 0.337-2.121 0.879s-0.879 1.293-0.879 2.121v3c0 0.552 0.448 1 1 1s1-0.448 1-1v-3c0-0.276 0.111-0.525 0.293-0.707s0.431-0.293 0.707-0.293h3c0.552 0 1-0.448 1-1s-0.448-1-1-1zM22 8v-3c0-0.828-0.337-1.58-0.879-2.121s-1.293-0.879-2.121-0.879h-3c-0.552 0-1 0.448-1 1s0.448 1 1 1h3c0.276 0 0.525 0.111 0.707 0.293s0.293 0.431 0.293 0.707v3c0 0.552 0.448 1 1 1s1-0.448 1-1zM16 22h3c0.828 0 1.58-0.337 2.121-0.879s0.879-1.293 0.879-2.121v-3c0-0.552-0.448-1-1-1s-1 0.448-1 1v3c0 0.276-0.111 0.525-0.293 0.707s-0.431 0.293-0.707 0.293h-3c-0.552 0-1 0.448-1 1s0.448 1 1 1zM2 16v3c0 0.828 0.337 1.58 0.879 2.121s1.293 0.879 2.121 0.879h3c0.552 0 1-0.448 1-1s-0.448-1-1-1h-3c-0.276 0-0.525-0.111-0.707-0.293s-0.293-0.431-0.293-0.707v-3c0-0.552-0.448-1-1-1s-1 0.448-1 1z"></path>
</symbol>
<symbol id="icon-menu" viewBox="0 0 24 24">
<path d="M3 13h18c0.552 0 1-0.448 1-1s-0.448-1-1-1h-18c-0.552 0-1 0.448-1 1s0.448 1 1 1zM3 7h18c0.552 0 1-0.448 1-1s-0.448-1-1-1h-18c-0.552 0-1 0.448-1 1s0.448 1 1 1zM3 19h18c0.552 0 1-0.448 1-1s-0.448-1-1-1h-18c-0.552 0-1 0.448-1 1s0.448 1 1 1z"></path>
</symbol>
<symbol id="icon-monitor" viewBox="0 0 24 24">
<path d="M12 16h-8c-0.276 0-0.525-0.111-0.707-0.293s-0.293-0.431-0.293-0.707v-10c0-0.276 0.111-0.525 0.293-0.707s0.431-0.293 0.707-0.293h16c0.276 0 0.525 0.111 0.707 0.293s0.293 0.431 0.293 0.707v10c0 0.276-0.111 0.525-0.293 0.707s-0.431 0.293-0.707 0.293zM11 18v2h-3c-0.552 0-1 0.448-1 1s0.448 1 1 1h8c0.552 0 1-0.448 1-1s-0.448-1-1-1h-3v-2h7c0.828 0 1.58-0.337 2.121-0.879s0.879-1.293 0.879-2.121v-10c0-0.828-0.337-1.58-0.879-2.121s-1.293-0.879-2.121-0.879h-16c-0.828 0-1.58 0.337-2.121 0.879s-0.879 1.293-0.879 2.121v10c0 0.828 0.337 1.58 0.879 2.121s1.293 0.879 2.121 0.879z"></path>
</symbol>
<symbol id="icon-move" viewBox="0 0 24 24">
<path d="M11 4.414v6.586h-6.586l1.293-1.293c0.391-0.391 0.391-1.024 0-1.414s-1.024-0.391-1.414 0l-3 3c-0.181 0.181-0.293 0.431-0.293 0.707 0 0.136 0.027 0.265 0.076 0.383s0.121 0.228 0.217 0.324l3 3c0.391 0.391 1.024 0.391 1.414 0s0.391-1.024 0-1.414l-1.293-1.293h6.586v6.586l-1.293-1.293c-0.391-0.391-1.024-0.391-1.414 0s-0.391 1.024 0 1.414l3 3c0.096 0.096 0.206 0.168 0.324 0.217s0.247 0.076 0.383 0.076c0.13 0 0.261-0.025 0.383-0.076 0.118-0.049 0.228-0.121 0.324-0.217l3-3c0.391-0.391 0.391-1.024 0-1.414s-1.024-0.391-1.414 0l-1.293 1.293v-6.586h6.586l-1.293 1.293c-0.391 0.391-0.391 1.024 0 1.414s1.024 0.391 1.414 0l3-3c0.096-0.096 0.168-0.206 0.217-0.324 0.15-0.362 0.078-0.795-0.217-1.090l-3-3c-0.391-0.391-1.024-0.391-1.414 0s-0.391 1.024 0 1.414l1.293 1.293h-6.586v-6.586l1.293 1.293c0.391 0.391 1.024 0.391 1.414 0s0.391-1.024 0-1.414l-3-3c-0.092-0.092-0.202-0.166-0.324-0.217-0.245-0.101-0.521-0.101-0.766 0-0.118 0.049-0.228 0.121-0.324 0.217l-3 3c-0.391 0.391-0.391 1.024 0 1.414s1.024 0.391 1.414 0z"></path>
</symbol>
<symbol id="icon-navigation" viewBox="0 0 24 24">
<path d="M2.572 10.096c-0.262 0.125-0.467 0.36-0.542 0.661-0.134 0.536 0.192 1.079 0.728 1.213l7.418 1.854 1.854 7.418c0.071 0.281 0.261 0.528 0.542 0.661 0.499 0.236 1.095 0.023 1.332-0.476l9-19c0.124-0.263 0.133-0.575 0-0.856-0.236-0.499-0.833-0.712-1.332-0.476zM5.953 10.708l13.945-6.606-6.606 13.945-1.322-5.29c-0.092-0.369-0.378-0.638-0.728-0.728z"></path>
</symbol>
<symbol id="icon-pen-tool" viewBox="0 0 24 24">
<path d="M18.707 13.707l0.293-0.293 1.586 1.586-5.586 5.586-1.586-1.586 0.293-0.293zM2.252 1.032c-0.035-0.009-0.070-0.016-0.106-0.021-0.143-0.022-0.284-0.011-0.417 0.026-0.132 0.037-0.259 0.102-0.37 0.195-0.092 0.077-0.171 0.171-0.231 0.279-0.060 0.106-0.099 0.22-0.116 0.337-0.020 0.128-0.015 0.255 0.012 0.371 0.001 0.005 0.003 0.011 0.004 0.016l0.004 0.017 3.496 14.483c0.094 0.388 0.403 0.669 0.776 0.746l5.765 1.153c-0.141 0.359-0.067 0.783 0.224 1.073l3 3c0.391 0.391 1.024 0.391 1.414 0l7-7c0.391-0.391 0.391-1.024 0-1.414l-3-3c-0.29-0.29-0.714-0.365-1.073-0.224l-1.153-5.765c-0.078-0.392-0.376-0.684-0.746-0.776zM14 11c0-0.828-0.337-1.58-0.879-2.121s-1.293-0.879-2.121-0.879c-0.463 0-0.902 0.105-1.293 0.293l-4.487-4.487 10.425 2.516 1.27 6.349-4.243 4.243-6.349-1.27-2.517-10.424 4.487 4.487c-0.188 0.391-0.293 0.83-0.293 1.293 0 0.828 0.337 1.58 0.879 2.121s1.293 0.879 2.121 0.879 1.58-0.337 2.121-0.879 0.879-1.293 0.879-2.121zM12 11c0 0.276-0.111 0.525-0.293 0.707s-0.431 0.293-0.707 0.293-0.525-0.111-0.707-0.293-0.293-0.431-0.293-0.707c0-0.27 0.106-0.514 0.281-0.695 0.004-0.004 0.008-0.008 0.013-0.012s0.008-0.008 0.012-0.013c0.18-0.174 0.424-0.28 0.694-0.28 0.276 0 0.525 0.111 0.707 0.293s0.293 0.431 0.293 0.707z"></path>
</symbol>
<symbol id="icon-rss" viewBox="0 0 24 24">
<path d="M4 12c2.209 0 4.208 0.894 5.657 2.343s2.343 3.448 2.343 5.657c0 0.552 0.448 1 1 1s1-0.448 1-1c0-2.761-1.12-5.263-2.929-7.071s-4.31-2.929-7.071-2.929c-0.552 0-1 0.448-1 1s0.448 1 1 1zM4 5c4.142 0 7.891 1.678 10.607 4.393s4.393 6.465 4.393 10.607c0 0.552 0.448 1 1 1s1-0.448 1-1c0-4.694-1.904-8.946-4.979-12.021s-7.327-4.979-12.021-4.979c-0.552 0-1 0.448-1 1s0.448 1 1 1zM7 19c0-0.552-0.225-1.053-0.586-1.414s-0.862-0.586-1.414-0.586-1.053 0.225-1.414 0.586-0.586 0.862-0.586 1.414 0.225 1.053 0.586 1.414 0.862 0.586 1.414 0.586 1.053-0.225 1.414-0.586 0.586-0.862 0.586-1.414z"></path>
</symbol>
<symbol id="icon-settings" viewBox="0 0 24 24">
<path d="M16 12c0-1.104-0.449-2.106-1.172-2.828s-1.724-1.172-2.828-1.172-2.106 0.449-2.828 1.172-1.172 1.724-1.172 2.828 0.449 2.106 1.172 2.828 1.724 1.172 2.828 1.172 2.106-0.449 2.828-1.172 1.172-1.724 1.172-2.828zM14 12c0 0.553-0.223 1.051-0.586 1.414s-0.861 0.586-1.414 0.586-1.051-0.223-1.414-0.586-0.586-0.861-0.586-1.414 0.223-1.051 0.586-1.414 0.861-0.586 1.414-0.586 1.051 0.223 1.414 0.586 0.586 0.861 0.586 1.414zM20.315 15.404c0.046-0.105 0.112-0.191 0.192-0.257 0.112-0.092 0.251-0.146 0.403-0.147h0.090c0.828 0 1.58-0.337 2.121-0.879s0.879-1.293 0.879-2.121-0.337-1.58-0.879-2.121-1.293-0.879-2.121-0.879h-0.159c-0.11-0.001-0.215-0.028-0.308-0.076-0.127-0.066-0.23-0.172-0.292-0.312-0.003-0.029-0.004-0.059-0.004-0.089-0.024-0.055-0.040-0.111-0.049-0.168 0.020-0.334 0.077-0.454 0.168-0.547l0.062-0.062c0.585-0.586 0.878-1.356 0.877-2.122s-0.294-1.536-0.881-2.122c-0.586-0.585-1.356-0.878-2.122-0.877s-1.536 0.294-2.12 0.879l-0.046 0.046c-0.083 0.080-0.183 0.136-0.288 0.166-0.14 0.039-0.291 0.032-0.438-0.033-0.101-0.044-0.187-0.11-0.253-0.19-0.092-0.112-0.146-0.251-0.147-0.403v-0.090c0-0.828-0.337-1.58-0.879-2.121s-1.293-0.879-2.121-0.879-1.58 0.337-2.121 0.879-0.879 1.293-0.879 2.121v0.159c-0.001 0.11-0.028 0.215-0.076 0.308-0.066 0.127-0.172 0.23-0.312 0.292-0.029 0.003-0.059 0.004-0.089 0.004-0.055 0.024-0.111 0.040-0.168 0.049-0.335-0.021-0.455-0.078-0.548-0.169l-0.062-0.062c-0.586-0.585-1.355-0.878-2.122-0.878s-1.535 0.294-2.122 0.882c-0.585 0.586-0.878 1.355-0.878 2.122s0.294 1.536 0.879 2.12l0.048 0.047c0.080 0.083 0.136 0.183 0.166 0.288 0.039 0.14 0.032 0.291-0.031 0.434-0.006 0.016-0.013 0.034-0.021 0.052-0.041 0.109-0.108 0.203-0.191 0.275-0.11 0.095-0.25 0.153-0.383 0.156h-0.090c-0.828 0-1.58 0.337-2.121 0.879s-0.879 1.294-0.879 2.122 0.337 1.58 0.879 2.121 1.293 0.879 2.121 0.879h0.159c0.11 0.001 0.215 0.028 0.308 0.076 0.128 0.067 0.233 0.174 0.296 0.321 0.024 0.055 0.040 0.111 0.049 0.168-0.020 0.334-0.077 0.454-0.168 0.547l-0.062 0.062c-0.585 0.586-0.878 1.356-0.877 2.122s0.294 1.536 0.881 2.122c0.586 0.585 1.356 0.878 2.122 0.877s1.536-0.294 2.12-0.879l0.047-0.048c0.083-0.080 0.183-0.136 0.288-0.166 0.14-0.039 0.291-0.032 0.434 0.031 0.016 0.006 0.034 0.013 0.052 0.021 0.109 0.041 0.203 0.108 0.275 0.191 0.095 0.11 0.153 0.25 0.156 0.383v0.092c0 0.828 0.337 1.58 0.879 2.121s1.293 0.879 2.121 0.879 1.58-0.337 2.121-0.879 0.879-1.293 0.879-2.121v-0.159c0.001-0.11 0.028-0.215 0.076-0.308 0.067-0.128 0.174-0.233 0.321-0.296 0.055-0.024 0.111-0.040 0.168-0.049 0.334 0.020 0.454 0.077 0.547 0.168l0.062 0.062c0.586 0.585 1.356 0.878 2.122 0.877s1.536-0.294 2.122-0.881c0.585-0.586 0.878-1.356 0.877-2.122s-0.294-1.536-0.879-2.12l-0.048-0.047c-0.080-0.083-0.136-0.183-0.166-0.288-0.039-0.14-0.032-0.291 0.031-0.434zM18.396 9.302c-0.012-0.201-0.038-0.297-0.076-0.382v0.080c0 0.043 0.003 0.084 0.008 0.125 0.021 0.060 0.043 0.119 0.068 0.177 0.004 0.090 0.005 0.091 0.005 0.092 0.249 0.581 0.684 1.030 1.208 1.303 0.371 0.193 0.785 0.298 1.211 0.303h0.18c0.276 0 0.525 0.111 0.707 0.293s0.293 0.431 0.293 0.707-0.111 0.525-0.293 0.707-0.431 0.293-0.707 0.293h-0.090c-0.637 0.003-1.22 0.228-1.675 0.603-0.323 0.266-0.581 0.607-0.75 0.993-0.257 0.582-0.288 1.21-0.127 1.782 0.119 0.423 0.341 0.814 0.652 1.136l0.072 0.073c0.196 0.196 0.294 0.45 0.294 0.707s-0.097 0.512-0.292 0.707c-0.197 0.197-0.451 0.295-0.709 0.295s-0.512-0.097-0.707-0.292l-0.061-0.061c-0.463-0.453-1.040-0.702-1.632-0.752-0.437-0.037-0.882 0.034-1.293 0.212-0.578 0.248-1.027 0.683-1.3 1.206-0.193 0.371-0.298 0.785-0.303 1.211v0.181c0 0.276-0.111 0.525-0.293 0.707s-0.43 0.292-0.706 0.292-0.525-0.111-0.707-0.293-0.293-0.431-0.293-0.707v-0.090c-0.015-0.66-0.255-1.242-0.644-1.692-0.284-0.328-0.646-0.585-1.058-0.744-0.575-0.247-1.193-0.274-1.756-0.116-0.423 0.119-0.814 0.341-1.136 0.652l-0.073 0.072c-0.196 0.196-0.45 0.294-0.707 0.294s-0.512-0.097-0.707-0.292c-0.197-0.197-0.295-0.451-0.295-0.709s0.097-0.512 0.292-0.707l0.061-0.061c0.453-0.463 0.702-1.040 0.752-1.632 0.037-0.437-0.034-0.882-0.212-1.293-0.248-0.578-0.683-1.027-1.206-1.3-0.371-0.193-0.785-0.298-1.211-0.303l-0.18 0.001c-0.276 0-0.525-0.111-0.707-0.293s-0.293-0.431-0.293-0.707 0.111-0.525 0.293-0.707 0.431-0.293 0.707-0.293h0.090c0.66-0.015 1.242-0.255 1.692-0.644 0.328-0.284 0.585-0.646 0.744-1.058 0.247-0.575 0.274-1.193 0.116-1.756-0.119-0.423-0.341-0.814-0.652-1.136l-0.073-0.073c-0.196-0.196-0.294-0.45-0.294-0.707s0.097-0.512 0.292-0.707c0.197-0.197 0.451-0.295 0.709-0.295s0.512 0.097 0.707 0.292l0.061 0.061c0.463 0.453 1.040 0.702 1.632 0.752 0.37 0.032 0.745-0.014 1.101-0.137 0.096-0.012 0.186-0.036 0.266-0.072-0.031 0.001-0.061 0.003-0.089 0.004-0.201 0.012-0.297 0.038-0.382 0.076h0.080c0.043 0 0.084-0.003 0.125-0.008 0.060-0.021 0.119-0.043 0.177-0.068 0.090-0.004 0.091-0.005 0.092-0.005 0.581-0.249 1.030-0.684 1.303-1.208 0.193-0.37 0.298-0.785 0.303-1.21v-0.181c0-0.276 0.111-0.525 0.293-0.707s0.431-0.293 0.707-0.293 0.525 0.111 0.707 0.293 0.293 0.431 0.293 0.707v0.090c0.003 0.637 0.228 1.22 0.603 1.675 0.266 0.323 0.607 0.581 0.996 0.751 0.578 0.255 1.206 0.286 1.778 0.125 0.423-0.119 0.814-0.341 1.136-0.652l0.073-0.072c0.196-0.196 0.45-0.294 0.707-0.294s0.512 0.097 0.707 0.292c0.197 0.197 0.295 0.451 0.295 0.709s-0.097 0.512-0.292 0.707l-0.061 0.061c-0.453 0.463-0.702 1.040-0.752 1.632-0.032 0.37 0.014 0.745 0.137 1.101 0.012 0.095 0.037 0.185 0.072 0.266-0.001-0.032-0.002-0.062-0.004-0.089z"></path>
</symbol>
<symbol id="icon-trending-down" viewBox="0 0 24 24">
<path d="M17 19h6c0.136 0 0.265-0.027 0.383-0.076s0.228-0.121 0.324-0.217 0.168-0.206 0.217-0.324c0.049-0.118 0.076-0.247 0.076-0.383v-6c0-0.552-0.448-1-1-1s-1 0.448-1 1v3.586l-7.793-7.793c-0.391-0.391-1.024-0.391-1.414 0l-4.293 4.293-6.793-6.793c-0.391-0.391-1.024-0.391-1.414 0s-0.391 1.024 0 1.414l7.5 7.5c0.391 0.391 1.024 0.391 1.414 0l4.293-4.293 7.086 7.086h-3.586c-0.552 0-1 0.448-1 1s0.448 1 1 1z"></path>
</symbol>
<symbol id="icon-user" viewBox="0 0 24 24">
<path d="M21 21v-2c0-1.38-0.561-2.632-1.464-3.536s-2.156-1.464-3.536-1.464h-8c-1.38 0-2.632 0.561-3.536 1.464s-1.464 2.156-1.464 3.536v2c0 0.552 0.448 1 1 1s1-0.448 1-1v-2c0-0.829 0.335-1.577 0.879-2.121s1.292-0.879 2.121-0.879h8c0.829 0 1.577 0.335 2.121 0.879s0.879 1.292 0.879 2.121v2c0 0.552 0.448 1 1 1s1-0.448 1-1zM17 7c0-1.38-0.561-2.632-1.464-3.536s-2.156-1.464-3.536-1.464-2.632 0.561-3.536 1.464-1.464 2.156-1.464 3.536 0.561 2.632 1.464 3.536 2.156 1.464 3.536 1.464 2.632-0.561 3.536-1.464 1.464-2.156 1.464-3.536zM15 7c0 0.829-0.335 1.577-0.879 2.121s-1.292 0.879-2.121 0.879-1.577-0.335-2.121-0.879-0.879-1.292-0.879-2.121 0.335-1.577 0.879-2.121 1.292-0.879 2.121-0.879 1.577 0.335 2.121 0.879 0.879 1.292 0.879 2.121z"></path>
</symbol>
<symbol id="icon-user-check" viewBox="0 0 24 24">
<path d="M17 21v-2c0-1.38-0.561-2.632-1.464-3.536s-2.156-1.464-3.536-1.464h-7c-1.38 0-2.632 0.561-3.536 1.464s-1.464 2.156-1.464 3.536v2c0 0.552 0.448 1 1 1s1-0.448 1-1v-2c0-0.829 0.335-1.577 0.879-2.121s1.292-0.879 2.121-0.879h7c0.829 0 1.577 0.335 2.121 0.879s0.879 1.292 0.879 2.121v2c0 0.552 0.448 1 1 1s1-0.448 1-1zM13.5 7c0-1.38-0.561-2.632-1.464-3.536s-2.156-1.464-3.536-1.464-2.632 0.561-3.536 1.464-1.464 2.156-1.464 3.536 0.561 2.632 1.464 3.536 2.156 1.464 3.536 1.464 2.632-0.561 3.536-1.464 1.464-2.156 1.464-3.536zM11.5 7c0 0.829-0.335 1.577-0.879 2.121s-1.292 0.879-2.121 0.879-1.577-0.335-2.121-0.879-0.879-1.292-0.879-2.121 0.335-1.577 0.879-2.121 1.292-0.879 2.121-0.879 1.577 0.335 2.121 0.879 0.879 1.292 0.879 2.121zM16.293 11.707l2 2c0.391 0.391 1.024 0.391 1.414 0l4-4c0.391-0.391 0.391-1.024 0-1.414s-1.024-0.391-1.414 0l-3.293 3.293-1.293-1.293c-0.391-0.391-1.024-0.391-1.414 0s-0.391 1.024 0 1.414z"></path>
</symbol>
<symbol id="icon-user-minus" viewBox="0 0 24 24">
<path d="M17 21v-2c0-1.38-0.561-2.632-1.464-3.536s-2.156-1.464-3.536-1.464h-7c-1.38 0-2.632 0.561-3.536 1.464s-1.464 2.156-1.464 3.536v2c0 0.552 0.448 1 1 1s1-0.448 1-1v-2c0-0.829 0.335-1.577 0.879-2.121s1.292-0.879 2.121-0.879h7c0.829 0 1.577 0.335 2.121 0.879s0.879 1.292 0.879 2.121v2c0 0.552 0.448 1 1 1s1-0.448 1-1zM13.5 7c0-1.38-0.561-2.632-1.464-3.536s-2.156-1.464-3.536-1.464-2.632 0.561-3.536 1.464-1.464 2.156-1.464 3.536 0.561 2.632 1.464 3.536 2.156 1.464 3.536 1.464 2.632-0.561 3.536-1.464 1.464-2.156 1.464-3.536zM11.5 7c0 0.829-0.335 1.577-0.879 2.121s-1.292 0.879-2.121 0.879-1.577-0.335-2.121-0.879-0.879-1.292-0.879-2.121 0.335-1.577 0.879-2.121 1.292-0.879 2.121-0.879 1.577 0.335 2.121 0.879 0.879 1.292 0.879 2.121zM23 10h-6c-0.552 0-1 0.448-1 1s0.448 1 1 1h6c0.552 0 1-0.448 1-1s-0.448-1-1-1z"></path>
</symbol>
</defs>
</svg>
